<?xml version="1.0" encoding="utf-8" standalone="no"?>
<!DOCTYPE svg PUBLIC "-//W3C//DTD SVG 1.1//EN"
  "http://www.w3.org/Graphics/SVG/1.1/DTD/svg11.dtd">
<svg xmlns:xlink="http://www.w3.org/1999/xlink" width="568.470937pt" height="279.034375pt" viewBox="0 0 568.470937 279.034375" xmlns="http://www.w3.org/2000/svg" version="1.1">
 <metadata>
  <rdf:RDF xmlns:dc="http://purl.org/dc/elements/1.1/" xmlns:cc="http://creativecommons.org/ns#" xmlns:rdf="http://www.w3.org/1999/02/22-rdf-syntax-ns#">
   <cc:Work>
    <dc:type rdf:resource="http://purl.org/dc/dcmitype/StillImage"/>
    <dc:date>2026-04-25T09:36:05.588901</dc:date>
    <dc:format>image/svg+xml</dc:format>
    <dc:creator>
     <cc:Agent>
      <dc:title>Matplotlib v3.10.8, https://matplotlib.org/</dc:title>
     </cc:Agent>
    </dc:creator>
   </cc:Work>
  </rdf:RDF>
 </metadata>
 <defs>
  <style type="text/css">*{stroke-linejoin: round; stroke-linecap: butt}</style>
 </defs>
 <g id="figure_1">
  <g id="patch_1">
   <path d="M 0 279.034375 
L 568.470937 279.034375 
L 568.470937 0 
L 0 0 
z
" style="fill: #ffffff"/>
  </g>
  <g id="axes_1">
   <g id="patch_2">
    <path d="M 52.160938 241.478125 
L 561.270937 241.478125 
L 561.270937 22.318125 
L 52.160938 22.318125 
z
" style="fill: #ffffff"/>
   </g>
   <g id="matplotlib.axis_1">
    <g id="xtick_1">
     <g id="line2d_1">
      <path d="M 75.302301 241.478125 
L 75.302301 22.318125 
" clip-path="url(#p76f3fd6f04)" style="fill: none; stroke: #b0b0b0; stroke-opacity: 0.3; stroke-width: 0.8; stroke-linecap: square"/>
     </g>
     <g id="line2d_2">
      <defs>
       <path id="m64ae2e5341" d="M 0 0 
L 0 3.5 
" style="stroke: #000000; stroke-width: 0.8"/>
      </defs>
      <g>
       <use xlink:href="#m64ae2e5341" x="75.302301" y="241.478125" style="stroke: #000000; stroke-width: 0.8"/>
      </g>
     </g>
     <g id="text_1">
      <!-- 0 -->
      <g transform="translate(72.121051 256.076563) scale(0.1 -0.1)">
       <defs>
        <path id="DejaVuSans-30" d="M 2034 4250 
Q 1547 4250 1301 3770 
Q 1056 3291 1056 2328 
Q 1056 1369 1301 889 
Q 1547 409 2034 409 
Q 2525 409 2770 889 
Q 3016 1369 3016 2328 
Q 3016 3291 2770 3770 
Q 2525 4250 2034 4250 
z
M 2034 4750 
Q 2819 4750 3233 4129 
Q 3647 3509 3647 2328 
Q 3647 1150 3233 529 
Q 2819 -91 2034 -91 
Q 1250 -91 836 529 
Q 422 1150 422 2328 
Q 422 3509 836 4129 
Q 1250 4750 2034 4750 
z
" transform="scale(0.015625)"/>
       </defs>
       <use xlink:href="#DejaVuSans-30"/>
      </g>
     </g>
    </g>
    <g id="xtick_2">
     <g id="line2d_3">
      <path d="M 136.200626 241.478125 
L 136.200626 22.318125 
" clip-path="url(#p76f3fd6f04)" style="fill: none; stroke: #b0b0b0; stroke-opacity: 0.3; stroke-width: 0.8; stroke-linecap: square"/>
     </g>
     <g id="line2d_4">
      <g>
       <use xlink:href="#m64ae2e5341" x="136.200626" y="241.478125" style="stroke: #000000; stroke-width: 0.8"/>
      </g>
     </g>
     <g id="text_2">
      <!-- 250 -->
      <g transform="translate(126.656876 256.076563) scale(0.1 -0.1)">
       <defs>
        <path id="DejaVuSans-32" d="M 1228 531 
L 3431 531 
L 3431 0 
L 469 0 
L 469 531 
Q 828 903 1448 1529 
Q 2069 2156 2228 2338 
Q 2531 2678 2651 2914 
Q 2772 3150 2772 3378 
Q 2772 3750 2511 3984 
Q 2250 4219 1831 4219 
Q 1534 4219 1204 4116 
Q 875 4013 500 3803 
L 500 4441 
Q 881 4594 1212 4672 
Q 1544 4750 1819 4750 
Q 2544 4750 2975 4387 
Q 3406 4025 3406 3419 
Q 3406 3131 3298 2873 
Q 3191 2616 2906 2266 
Q 2828 2175 2409 1742 
Q 1991 1309 1228 531 
z
" transform="scale(0.015625)"/>
        <path id="DejaVuSans-35" d="M 691 4666 
L 3169 4666 
L 3169 4134 
L 1269 4134 
L 1269 2991 
Q 1406 3038 1543 3061 
Q 1681 3084 1819 3084 
Q 2600 3084 3056 2656 
Q 3513 2228 3513 1497 
Q 3513 744 3044 326 
Q 2575 -91 1722 -91 
Q 1428 -91 1123 -41 
Q 819 9 494 109 
L 494 744 
Q 775 591 1075 516 
Q 1375 441 1709 441 
Q 2250 441 2565 725 
Q 2881 1009 2881 1497 
Q 2881 1984 2565 2268 
Q 2250 2553 1709 2553 
Q 1456 2553 1204 2497 
Q 953 2441 691 2322 
L 691 4666 
z
" transform="scale(0.015625)"/>
       </defs>
       <use xlink:href="#DejaVuSans-32"/>
       <use xlink:href="#DejaVuSans-35" transform="translate(63.623047 0)"/>
       <use xlink:href="#DejaVuSans-30" transform="translate(127.246094 0)"/>
      </g>
     </g>
    </g>
    <g id="xtick_3">
     <g id="line2d_5">
      <path d="M 197.098952 241.478125 
L 197.098952 22.318125 
" clip-path="url(#p76f3fd6f04)" style="fill: none; stroke: #b0b0b0; stroke-opacity: 0.3; stroke-width: 0.8; stroke-linecap: square"/>
     </g>
     <g id="line2d_6">
      <g>
       <use xlink:href="#m64ae2e5341" x="197.098952" y="241.478125" style="stroke: #000000; stroke-width: 0.8"/>
      </g>
     </g>
     <g id="text_3">
      <!-- 500 -->
      <g transform="translate(187.555202 256.076563) scale(0.1 -0.1)">
       <use xlink:href="#DejaVuSans-35"/>
       <use xlink:href="#DejaVuSans-30" transform="translate(63.623047 0)"/>
       <use xlink:href="#DejaVuSans-30" transform="translate(127.246094 0)"/>
      </g>
     </g>
    </g>
    <g id="xtick_4">
     <g id="line2d_7">
      <path d="M 257.997277 241.478125 
L 257.997277 22.318125 
" clip-path="url(#p76f3fd6f04)" style="fill: none; stroke: #b0b0b0; stroke-opacity: 0.3; stroke-width: 0.8; stroke-linecap: square"/>
     </g>
     <g id="line2d_8">
      <g>
       <use xlink:href="#m64ae2e5341" x="257.997277" y="241.478125" style="stroke: #000000; stroke-width: 0.8"/>
      </g>
     </g>
     <g id="text_4">
      <!-- 750 -->
      <g transform="translate(248.453527 256.076563) scale(0.1 -0.1)">
       <defs>
        <path id="DejaVuSans-37" d="M 525 4666 
L 3525 4666 
L 3525 4397 
L 1831 0 
L 1172 0 
L 2766 4134 
L 525 4134 
L 525 4666 
z
" transform="scale(0.015625)"/>
       </defs>
       <use xlink:href="#DejaVuSans-37"/>
       <use xlink:href="#DejaVuSans-35" transform="translate(63.623047 0)"/>
       <use xlink:href="#DejaVuSans-30" transform="translate(127.246094 0)"/>
      </g>
     </g>
    </g>
    <g id="xtick_5">
     <g id="line2d_9">
      <path d="M 318.895603 241.478125 
L 318.895603 22.318125 
" clip-path="url(#p76f3fd6f04)" style="fill: none; stroke: #b0b0b0; stroke-opacity: 0.3; stroke-width: 0.8; stroke-linecap: square"/>
     </g>
     <g id="line2d_10">
      <g>
       <use xlink:href="#m64ae2e5341" x="318.895603" y="241.478125" style="stroke: #000000; stroke-width: 0.8"/>
      </g>
     </g>
     <g id="text_5">
      <!-- 1000 -->
      <g transform="translate(306.170603 256.076563) scale(0.1 -0.1)">
       <defs>
        <path id="DejaVuSans-31" d="M 794 531 
L 1825 531 
L 1825 4091 
L 703 3866 
L 703 4441 
L 1819 4666 
L 2450 4666 
L 2450 531 
L 3481 531 
L 3481 0 
L 794 0 
L 794 531 
z
" transform="scale(0.015625)"/>
       </defs>
       <use xlink:href="#DejaVuSans-31"/>
       <use xlink:href="#DejaVuSans-30" transform="translate(63.623047 0)"/>
       <use xlink:href="#DejaVuSans-30" transform="translate(127.246094 0)"/>
       <use xlink:href="#DejaVuSans-30" transform="translate(190.869141 0)"/>
      </g>
     </g>
    </g>
    <g id="xtick_6">
     <g id="line2d_11">
      <path d="M 379.793928 241.478125 
L 379.793928 22.318125 
" clip-path="url(#p76f3fd6f04)" style="fill: none; stroke: #b0b0b0; stroke-opacity: 0.3; stroke-width: 0.8; stroke-linecap: square"/>
     </g>
     <g id="line2d_12">
      <g>
       <use xlink:href="#m64ae2e5341" x="379.793928" y="241.478125" style="stroke: #000000; stroke-width: 0.8"/>
      </g>
     </g>
     <g id="text_6">
      <!-- 1250 -->
      <g transform="translate(367.068928 256.076563) scale(0.1 -0.1)">
       <use xlink:href="#DejaVuSans-31"/>
       <use xlink:href="#DejaVuSans-32" transform="translate(63.623047 0)"/>
       <use xlink:href="#DejaVuSans-35" transform="translate(127.246094 0)"/>
       <use xlink:href="#DejaVuSans-30" transform="translate(190.869141 0)"/>
      </g>
     </g>
    </g>
    <g id="xtick_7">
     <g id="line2d_13">
      <path d="M 440.692253 241.478125 
L 440.692253 22.318125 
" clip-path="url(#p76f3fd6f04)" style="fill: none; stroke: #b0b0b0; stroke-opacity: 0.3; stroke-width: 0.8; stroke-linecap: square"/>
     </g>
     <g id="line2d_14">
      <g>
       <use xlink:href="#m64ae2e5341" x="440.692253" y="241.478125" style="stroke: #000000; stroke-width: 0.8"/>
      </g>
     </g>
     <g id="text_7">
      <!-- 1500 -->
      <g transform="translate(427.967253 256.076563) scale(0.1 -0.1)">
       <use xlink:href="#DejaVuSans-31"/>
       <use xlink:href="#DejaVuSans-35" transform="translate(63.623047 0)"/>
       <use xlink:href="#DejaVuSans-30" transform="translate(127.246094 0)"/>
       <use xlink:href="#DejaVuSans-30" transform="translate(190.869141 0)"/>
      </g>
     </g>
    </g>
    <g id="xtick_8">
     <g id="line2d_15">
      <path d="M 501.590579 241.478125 
L 501.590579 22.318125 
" clip-path="url(#p76f3fd6f04)" style="fill: none; stroke: #b0b0b0; stroke-opacity: 0.3; stroke-width: 0.8; stroke-linecap: square"/>
     </g>
     <g id="line2d_16">
      <g>
       <use xlink:href="#m64ae2e5341" x="501.590579" y="241.478125" style="stroke: #000000; stroke-width: 0.8"/>
      </g>
     </g>
     <g id="text_8">
      <!-- 1750 -->
      <g transform="translate(488.865579 256.076563) scale(0.1 -0.1)">
       <use xlink:href="#DejaVuSans-31"/>
       <use xlink:href="#DejaVuSans-37" transform="translate(63.623047 0)"/>
       <use xlink:href="#DejaVuSans-35" transform="translate(127.246094 0)"/>
       <use xlink:href="#DejaVuSans-30" transform="translate(190.869141 0)"/>
      </g>
     </g>
    </g>
    <g id="text_9">
     <!-- Episode -->
     <g transform="translate(287.078438 269.754687) scale(0.1 -0.1)">
      <defs>
       <path id="DejaVuSans-45" d="M 628 4666 
L 3578 4666 
L 3578 4134 
L 1259 4134 
L 1259 2753 
L 3481 2753 
L 3481 2222 
L 1259 2222 
L 1259 531 
L 3634 531 
L 3634 0 
L 628 0 
L 628 4666 
z
" transform="scale(0.015625)"/>
       <path id="DejaVuSans-70" d="M 1159 525 
L 1159 -1331 
L 581 -1331 
L 581 3500 
L 1159 3500 
L 1159 2969 
Q 1341 3281 1617 3432 
Q 1894 3584 2278 3584 
Q 2916 3584 3314 3078 
Q 3713 2572 3713 1747 
Q 3713 922 3314 415 
Q 2916 -91 2278 -91 
Q 1894 -91 1617 61 
Q 1341 213 1159 525 
z
M 3116 1747 
Q 3116 2381 2855 2742 
Q 2594 3103 2138 3103 
Q 1681 3103 1420 2742 
Q 1159 2381 1159 1747 
Q 1159 1113 1420 752 
Q 1681 391 2138 391 
Q 2594 391 2855 752 
Q 3116 1113 3116 1747 
z
" transform="scale(0.015625)"/>
       <path id="DejaVuSans-69" d="M 603 3500 
L 1178 3500 
L 1178 0 
L 603 0 
L 603 3500 
z
M 603 4863 
L 1178 4863 
L 1178 4134 
L 603 4134 
L 603 4863 
z
" transform="scale(0.015625)"/>
       <path id="DejaVuSans-73" d="M 2834 3397 
L 2834 2853 
Q 2591 2978 2328 3040 
Q 2066 3103 1784 3103 
Q 1356 3103 1142 2972 
Q 928 2841 928 2578 
Q 928 2378 1081 2264 
Q 1234 2150 1697 2047 
L 1894 2003 
Q 2506 1872 2764 1633 
Q 3022 1394 3022 966 
Q 3022 478 2636 193 
Q 2250 -91 1575 -91 
Q 1294 -91 989 -36 
Q 684 19 347 128 
L 347 722 
Q 666 556 975 473 
Q 1284 391 1588 391 
Q 1994 391 2212 530 
Q 2431 669 2431 922 
Q 2431 1156 2273 1281 
Q 2116 1406 1581 1522 
L 1381 1569 
Q 847 1681 609 1914 
Q 372 2147 372 2553 
Q 372 3047 722 3315 
Q 1072 3584 1716 3584 
Q 2034 3584 2315 3537 
Q 2597 3491 2834 3397 
z
" transform="scale(0.015625)"/>
       <path id="DejaVuSans-6f" d="M 1959 3097 
Q 1497 3097 1228 2736 
Q 959 2375 959 1747 
Q 959 1119 1226 758 
Q 1494 397 1959 397 
Q 2419 397 2687 759 
Q 2956 1122 2956 1747 
Q 2956 2369 2687 2733 
Q 2419 3097 1959 3097 
z
M 1959 3584 
Q 2709 3584 3137 3096 
Q 3566 2609 3566 1747 
Q 3566 888 3137 398 
Q 2709 -91 1959 -91 
Q 1206 -91 779 398 
Q 353 888 353 1747 
Q 353 2609 779 3096 
Q 1206 3584 1959 3584 
z
" transform="scale(0.015625)"/>
       <path id="DejaVuSans-64" d="M 2906 2969 
L 2906 4863 
L 3481 4863 
L 3481 0 
L 2906 0 
L 2906 525 
Q 2725 213 2448 61 
Q 2172 -91 1784 -91 
Q 1150 -91 751 415 
Q 353 922 353 1747 
Q 353 2572 751 3078 
Q 1150 3584 1784 3584 
Q 2172 3584 2448 3432 
Q 2725 3281 2906 2969 
z
M 947 1747 
Q 947 1113 1208 752 
Q 1469 391 1925 391 
Q 2381 391 2643 752 
Q 2906 1113 2906 1747 
Q 2906 2381 2643 2742 
Q 2381 3103 1925 3103 
Q 1469 3103 1208 2742 
Q 947 2381 947 1747 
z
" transform="scale(0.015625)"/>
       <path id="DejaVuSans-65" d="M 3597 1894 
L 3597 1613 
L 953 1613 
Q 991 1019 1311 708 
Q 1631 397 2203 397 
Q 2534 397 2845 478 
Q 3156 559 3463 722 
L 3463 178 
Q 3153 47 2828 -22 
Q 2503 -91 2169 -91 
Q 1331 -91 842 396 
Q 353 884 353 1716 
Q 353 2575 817 3079 
Q 1281 3584 2069 3584 
Q 2775 3584 3186 3129 
Q 3597 2675 3597 1894 
z
M 3022 2063 
Q 3016 2534 2758 2815 
Q 2500 3097 2075 3097 
Q 1594 3097 1305 2825 
Q 1016 2553 972 2059 
L 3022 2063 
z
" transform="scale(0.015625)"/>
      </defs>
      <use xlink:href="#DejaVuSans-45"/>
      <use xlink:href="#DejaVuSans-70" transform="translate(63.183594 0)"/>
      <use xlink:href="#DejaVuSans-69" transform="translate(126.660156 0)"/>
      <use xlink:href="#DejaVuSans-73" transform="translate(154.443359 0)"/>
      <use xlink:href="#DejaVuSans-6f" transform="translate(206.542969 0)"/>
      <use xlink:href="#DejaVuSans-64" transform="translate(267.724609 0)"/>
      <use xlink:href="#DejaVuSans-65" transform="translate(331.201172 0)"/>
     </g>
    </g>
   </g>
   <g id="matplotlib.axis_2">
    <g id="ytick_1">
     <g id="line2d_17">
      <path d="M 52.160938 226.464107 
L 561.270937 226.464107 
" clip-path="url(#p76f3fd6f04)" style="fill: none; stroke: #b0b0b0; stroke-opacity: 0.3; stroke-width: 0.8; stroke-linecap: square"/>
     </g>
     <g id="line2d_18">
      <defs>
       <path id="mcaee022032" d="M 0 0 
L -3.5 0 
" style="stroke: #000000; stroke-width: 0.8"/>
      </defs>
      <g>
       <use xlink:href="#mcaee022032" x="52.160938" y="226.464107" style="stroke: #000000; stroke-width: 0.8"/>
      </g>
     </g>
     <g id="text_10">
      <!-- −0.6 -->
      <g transform="translate(20.878125 230.263326) scale(0.1 -0.1)">
       <defs>
        <path id="DejaVuSans-2212" d="M 678 2272 
L 4684 2272 
L 4684 1741 
L 678 1741 
L 678 2272 
z
" transform="scale(0.015625)"/>
        <path id="DejaVuSans-2e" d="M 684 794 
L 1344 794 
L 1344 0 
L 684 0 
L 684 794 
z
" transform="scale(0.015625)"/>
        <path id="DejaVuSans-36" d="M 2113 2584 
Q 1688 2584 1439 2293 
Q 1191 2003 1191 1497 
Q 1191 994 1439 701 
Q 1688 409 2113 409 
Q 2538 409 2786 701 
Q 3034 994 3034 1497 
Q 3034 2003 2786 2293 
Q 2538 2584 2113 2584 
z
M 3366 4563 
L 3366 3988 
Q 3128 4100 2886 4159 
Q 2644 4219 2406 4219 
Q 1781 4219 1451 3797 
Q 1122 3375 1075 2522 
Q 1259 2794 1537 2939 
Q 1816 3084 2150 3084 
Q 2853 3084 3261 2657 
Q 3669 2231 3669 1497 
Q 3669 778 3244 343 
Q 2819 -91 2113 -91 
Q 1303 -91 875 529 
Q 447 1150 447 2328 
Q 447 3434 972 4092 
Q 1497 4750 2381 4750 
Q 2619 4750 2861 4703 
Q 3103 4656 3366 4563 
z
" transform="scale(0.015625)"/>
       </defs>
       <use xlink:href="#DejaVuSans-2212"/>
       <use xlink:href="#DejaVuSans-30" transform="translate(83.789062 0)"/>
       <use xlink:href="#DejaVuSans-2e" transform="translate(147.412109 0)"/>
       <use xlink:href="#DejaVuSans-36" transform="translate(179.199219 0)"/>
      </g>
     </g>
    </g>
    <g id="ytick_2">
     <g id="line2d_19">
      <path d="M 52.160938 200.42184 
L 561.270937 200.42184 
" clip-path="url(#p76f3fd6f04)" style="fill: none; stroke: #b0b0b0; stroke-opacity: 0.3; stroke-width: 0.8; stroke-linecap: square"/>
     </g>
     <g id="line2d_20">
      <g>
       <use xlink:href="#mcaee022032" x="52.160938" y="200.42184" style="stroke: #000000; stroke-width: 0.8"/>
      </g>
     </g>
     <g id="text_11">
      <!-- −0.4 -->
      <g transform="translate(20.878125 204.221059) scale(0.1 -0.1)">
       <defs>
        <path id="DejaVuSans-34" d="M 2419 4116 
L 825 1625 
L 2419 1625 
L 2419 4116 
z
M 2253 4666 
L 3047 4666 
L 3047 1625 
L 3713 1625 
L 3713 1100 
L 3047 1100 
L 3047 0 
L 2419 0 
L 2419 1100 
L 313 1100 
L 313 1709 
L 2253 4666 
z
" transform="scale(0.015625)"/>
       </defs>
       <use xlink:href="#DejaVuSans-2212"/>
       <use xlink:href="#DejaVuSans-30" transform="translate(83.789062 0)"/>
       <use xlink:href="#DejaVuSans-2e" transform="translate(147.412109 0)"/>
       <use xlink:href="#DejaVuSans-34" transform="translate(179.199219 0)"/>
      </g>
     </g>
    </g>
    <g id="ytick_3">
     <g id="line2d_21">
      <path d="M 52.160938 174.379573 
L 561.270937 174.379573 
" clip-path="url(#p76f3fd6f04)" style="fill: none; stroke: #b0b0b0; stroke-opacity: 0.3; stroke-width: 0.8; stroke-linecap: square"/>
     </g>
     <g id="line2d_22">
      <g>
       <use xlink:href="#mcaee022032" x="52.160938" y="174.379573" style="stroke: #000000; stroke-width: 0.8"/>
      </g>
     </g>
     <g id="text_12">
      <!-- −0.2 -->
      <g transform="translate(20.878125 178.178792) scale(0.1 -0.1)">
       <use xlink:href="#DejaVuSans-2212"/>
       <use xlink:href="#DejaVuSans-30" transform="translate(83.789062 0)"/>
       <use xlink:href="#DejaVuSans-2e" transform="translate(147.412109 0)"/>
       <use xlink:href="#DejaVuSans-32" transform="translate(179.199219 0)"/>
      </g>
     </g>
    </g>
    <g id="ytick_4">
     <g id="line2d_23">
      <path d="M 52.160938 148.337306 
L 561.270937 148.337306 
" clip-path="url(#p76f3fd6f04)" style="fill: none; stroke: #b0b0b0; stroke-opacity: 0.3; stroke-width: 0.8; stroke-linecap: square"/>
     </g>
     <g id="line2d_24">
      <g>
       <use xlink:href="#mcaee022032" x="52.160938" y="148.337306" style="stroke: #000000; stroke-width: 0.8"/>
      </g>
     </g>
     <g id="text_13">
      <!-- 0.0 -->
      <g transform="translate(29.257813 152.136525) scale(0.1 -0.1)">
       <use xlink:href="#DejaVuSans-30"/>
       <use xlink:href="#DejaVuSans-2e" transform="translate(63.623047 0)"/>
       <use xlink:href="#DejaVuSans-30" transform="translate(95.410156 0)"/>
      </g>
     </g>
    </g>
    <g id="ytick_5">
     <g id="line2d_25">
      <path d="M 52.160938 122.295039 
L 561.270937 122.295039 
" clip-path="url(#p76f3fd6f04)" style="fill: none; stroke: #b0b0b0; stroke-opacity: 0.3; stroke-width: 0.8; stroke-linecap: square"/>
     </g>
     <g id="line2d_26">
      <g>
       <use xlink:href="#mcaee022032" x="52.160938" y="122.295039" style="stroke: #000000; stroke-width: 0.8"/>
      </g>
     </g>
     <g id="text_14">
      <!-- 0.2 -->
      <g transform="translate(29.257813 126.094258) scale(0.1 -0.1)">
       <use xlink:href="#DejaVuSans-30"/>
       <use xlink:href="#DejaVuSans-2e" transform="translate(63.623047 0)"/>
       <use xlink:href="#DejaVuSans-32" transform="translate(95.410156 0)"/>
      </g>
     </g>
    </g>
    <g id="ytick_6">
     <g id="line2d_27">
      <path d="M 52.160938 96.252772 
L 561.270937 96.252772 
" clip-path="url(#p76f3fd6f04)" style="fill: none; stroke: #b0b0b0; stroke-opacity: 0.3; stroke-width: 0.8; stroke-linecap: square"/>
     </g>
     <g id="line2d_28">
      <g>
       <use xlink:href="#mcaee022032" x="52.160938" y="96.252772" style="stroke: #000000; stroke-width: 0.8"/>
      </g>
     </g>
     <g id="text_15">
      <!-- 0.4 -->
      <g transform="translate(29.257813 100.051991) scale(0.1 -0.1)">
       <use xlink:href="#DejaVuSans-30"/>
       <use xlink:href="#DejaVuSans-2e" transform="translate(63.623047 0)"/>
       <use xlink:href="#DejaVuSans-34" transform="translate(95.410156 0)"/>
      </g>
     </g>
    </g>
    <g id="ytick_7">
     <g id="line2d_29">
      <path d="M 52.160938 70.210505 
L 561.270937 70.210505 
" clip-path="url(#p76f3fd6f04)" style="fill: none; stroke: #b0b0b0; stroke-opacity: 0.3; stroke-width: 0.8; stroke-linecap: square"/>
     </g>
     <g id="line2d_30">
      <g>
       <use xlink:href="#mcaee022032" x="52.160938" y="70.210505" style="stroke: #000000; stroke-width: 0.8"/>
      </g>
     </g>
     <g id="text_16">
      <!-- 0.6 -->
      <g transform="translate(29.257813 74.009724) scale(0.1 -0.1)">
       <use xlink:href="#DejaVuSans-30"/>
       <use xlink:href="#DejaVuSans-2e" transform="translate(63.623047 0)"/>
       <use xlink:href="#DejaVuSans-36" transform="translate(95.410156 0)"/>
      </g>
     </g>
    </g>
    <g id="ytick_8">
     <g id="line2d_31">
      <path d="M 52.160938 44.168238 
L 561.270937 44.168238 
" clip-path="url(#p76f3fd6f04)" style="fill: none; stroke: #b0b0b0; stroke-opacity: 0.3; stroke-width: 0.8; stroke-linecap: square"/>
     </g>
     <g id="line2d_32">
      <g>
       <use xlink:href="#mcaee022032" x="52.160938" y="44.168238" style="stroke: #000000; stroke-width: 0.8"/>
      </g>
     </g>
     <g id="text_17">
      <!-- 0.8 -->
      <g transform="translate(29.257813 47.967457) scale(0.1 -0.1)">
       <defs>
        <path id="DejaVuSans-38" d="M 2034 2216 
Q 1584 2216 1326 1975 
Q 1069 1734 1069 1313 
Q 1069 891 1326 650 
Q 1584 409 2034 409 
Q 2484 409 2743 651 
Q 3003 894 3003 1313 
Q 3003 1734 2745 1975 
Q 2488 2216 2034 2216 
z
M 1403 2484 
Q 997 2584 770 2862 
Q 544 3141 544 3541 
Q 544 4100 942 4425 
Q 1341 4750 2034 4750 
Q 2731 4750 3128 4425 
Q 3525 4100 3525 3541 
Q 3525 3141 3298 2862 
Q 3072 2584 2669 2484 
Q 3125 2378 3379 2068 
Q 3634 1759 3634 1313 
Q 3634 634 3220 271 
Q 2806 -91 2034 -91 
Q 1263 -91 848 271 
Q 434 634 434 1313 
Q 434 1759 690 2068 
Q 947 2378 1403 2484 
z
M 1172 3481 
Q 1172 3119 1398 2916 
Q 1625 2713 2034 2713 
Q 2441 2713 2670 2916 
Q 2900 3119 2900 3481 
Q 2900 3844 2670 4047 
Q 2441 4250 2034 4250 
Q 1625 4250 1398 4047 
Q 1172 3844 1172 3481 
z
" transform="scale(0.015625)"/>
       </defs>
       <use xlink:href="#DejaVuSans-30"/>
       <use xlink:href="#DejaVuSans-2e" transform="translate(63.623047 0)"/>
       <use xlink:href="#DejaVuSans-38" transform="translate(95.410156 0)"/>
      </g>
     </g>
    </g>
    <g id="text_18">
     <!-- Reward (rolling avg) -->
     <g transform="translate(14.798438 182.309062) rotate(-90) scale(0.1 -0.1)">
      <defs>
       <path id="DejaVuSans-52" d="M 2841 2188 
Q 3044 2119 3236 1894 
Q 3428 1669 3622 1275 
L 4263 0 
L 3584 0 
L 2988 1197 
Q 2756 1666 2539 1819 
Q 2322 1972 1947 1972 
L 1259 1972 
L 1259 0 
L 628 0 
L 628 4666 
L 2053 4666 
Q 2853 4666 3247 4331 
Q 3641 3997 3641 3322 
Q 3641 2881 3436 2590 
Q 3231 2300 2841 2188 
z
M 1259 4147 
L 1259 2491 
L 2053 2491 
Q 2509 2491 2742 2702 
Q 2975 2913 2975 3322 
Q 2975 3731 2742 3939 
Q 2509 4147 2053 4147 
L 1259 4147 
z
" transform="scale(0.015625)"/>
       <path id="DejaVuSans-77" d="M 269 3500 
L 844 3500 
L 1563 769 
L 2278 3500 
L 2956 3500 
L 3675 769 
L 4391 3500 
L 4966 3500 
L 4050 0 
L 3372 0 
L 2619 2869 
L 1863 0 
L 1184 0 
L 269 3500 
z
" transform="scale(0.015625)"/>
       <path id="DejaVuSans-61" d="M 2194 1759 
Q 1497 1759 1228 1600 
Q 959 1441 959 1056 
Q 959 750 1161 570 
Q 1363 391 1709 391 
Q 2188 391 2477 730 
Q 2766 1069 2766 1631 
L 2766 1759 
L 2194 1759 
z
M 3341 1997 
L 3341 0 
L 2766 0 
L 2766 531 
Q 2569 213 2275 61 
Q 1981 -91 1556 -91 
Q 1019 -91 701 211 
Q 384 513 384 1019 
Q 384 1609 779 1909 
Q 1175 2209 1959 2209 
L 2766 2209 
L 2766 2266 
Q 2766 2663 2505 2880 
Q 2244 3097 1772 3097 
Q 1472 3097 1187 3025 
Q 903 2953 641 2809 
L 641 3341 
Q 956 3463 1253 3523 
Q 1550 3584 1831 3584 
Q 2591 3584 2966 3190 
Q 3341 2797 3341 1997 
z
" transform="scale(0.015625)"/>
       <path id="DejaVuSans-72" d="M 2631 2963 
Q 2534 3019 2420 3045 
Q 2306 3072 2169 3072 
Q 1681 3072 1420 2755 
Q 1159 2438 1159 1844 
L 1159 0 
L 581 0 
L 581 3500 
L 1159 3500 
L 1159 2956 
Q 1341 3275 1631 3429 
Q 1922 3584 2338 3584 
Q 2397 3584 2469 3576 
Q 2541 3569 2628 3553 
L 2631 2963 
z
" transform="scale(0.015625)"/>
       <path id="DejaVuSans-20" transform="scale(0.015625)"/>
       <path id="DejaVuSans-28" d="M 1984 4856 
Q 1566 4138 1362 3434 
Q 1159 2731 1159 2009 
Q 1159 1288 1364 580 
Q 1569 -128 1984 -844 
L 1484 -844 
Q 1016 -109 783 600 
Q 550 1309 550 2009 
Q 550 2706 781 3412 
Q 1013 4119 1484 4856 
L 1984 4856 
z
" transform="scale(0.015625)"/>
       <path id="DejaVuSans-6c" d="M 603 4863 
L 1178 4863 
L 1178 0 
L 603 0 
L 603 4863 
z
" transform="scale(0.015625)"/>
       <path id="DejaVuSans-6e" d="M 3513 2113 
L 3513 0 
L 2938 0 
L 2938 2094 
Q 2938 2591 2744 2837 
Q 2550 3084 2163 3084 
Q 1697 3084 1428 2787 
Q 1159 2491 1159 1978 
L 1159 0 
L 581 0 
L 581 3500 
L 1159 3500 
L 1159 2956 
Q 1366 3272 1645 3428 
Q 1925 3584 2291 3584 
Q 2894 3584 3203 3211 
Q 3513 2838 3513 2113 
z
" transform="scale(0.015625)"/>
       <path id="DejaVuSans-67" d="M 2906 1791 
Q 2906 2416 2648 2759 
Q 2391 3103 1925 3103 
Q 1463 3103 1205 2759 
Q 947 2416 947 1791 
Q 947 1169 1205 825 
Q 1463 481 1925 481 
Q 2391 481 2648 825 
Q 2906 1169 2906 1791 
z
M 3481 434 
Q 3481 -459 3084 -895 
Q 2688 -1331 1869 -1331 
Q 1566 -1331 1297 -1286 
Q 1028 -1241 775 -1147 
L 775 -588 
Q 1028 -725 1275 -790 
Q 1522 -856 1778 -856 
Q 2344 -856 2625 -561 
Q 2906 -266 2906 331 
L 2906 616 
Q 2728 306 2450 153 
Q 2172 0 1784 0 
Q 1141 0 747 490 
Q 353 981 353 1791 
Q 353 2603 747 3093 
Q 1141 3584 1784 3584 
Q 2172 3584 2450 3431 
Q 2728 3278 2906 2969 
L 2906 3500 
L 3481 3500 
L 3481 434 
z
" transform="scale(0.015625)"/>
       <path id="DejaVuSans-76" d="M 191 3500 
L 800 3500 
L 1894 563 
L 2988 3500 
L 3597 3500 
L 2284 0 
L 1503 0 
L 191 3500 
z
" transform="scale(0.015625)"/>
       <path id="DejaVuSans-29" d="M 513 4856 
L 1013 4856 
Q 1481 4119 1714 3412 
Q 1947 2706 1947 2009 
Q 1947 1309 1714 600 
Q 1481 -109 1013 -844 
L 513 -844 
Q 928 -128 1133 580 
Q 1338 1288 1338 2009 
Q 1338 2731 1133 3434 
Q 928 4138 513 4856 
z
" transform="scale(0.015625)"/>
      </defs>
      <use xlink:href="#DejaVuSans-52"/>
      <use xlink:href="#DejaVuSans-65" transform="translate(64.982422 0)"/>
      <use xlink:href="#DejaVuSans-77" transform="translate(126.505859 0)"/>
      <use xlink:href="#DejaVuSans-61" transform="translate(208.292969 0)"/>
      <use xlink:href="#DejaVuSans-72" transform="translate(269.572266 0)"/>
      <use xlink:href="#DejaVuSans-64" transform="translate(308.935547 0)"/>
      <use xlink:href="#DejaVuSans-20" transform="translate(372.412109 0)"/>
      <use xlink:href="#DejaVuSans-28" transform="translate(404.199219 0)"/>
      <use xlink:href="#DejaVuSans-72" transform="translate(443.212891 0)"/>
      <use xlink:href="#DejaVuSans-6f" transform="translate(482.076172 0)"/>
      <use xlink:href="#DejaVuSans-6c" transform="translate(543.257812 0)"/>
      <use xlink:href="#DejaVuSans-6c" transform="translate(571.041016 0)"/>
      <use xlink:href="#DejaVuSans-69" transform="translate(598.824219 0)"/>
      <use xlink:href="#DejaVuSans-6e" transform="translate(626.607422 0)"/>
      <use xlink:href="#DejaVuSans-67" transform="translate(689.986328 0)"/>
      <use xlink:href="#DejaVuSans-20" transform="translate(753.462891 0)"/>
      <use xlink:href="#DejaVuSans-61" transform="translate(785.25 0)"/>
      <use xlink:href="#DejaVuSans-76" transform="translate(846.529297 0)"/>
      <use xlink:href="#DejaVuSans-67" transform="translate(905.708984 0)"/>
      <use xlink:href="#DejaVuSans-29" transform="translate(969.185547 0)"/>
     </g>
    </g>
   </g>
   <g id="line2d_33">
    <path d="M 75.302301 231.516307 
L 75.545894 229.094376 
L 75.789488 231.008483 
L 76.276674 226.451086 
L 76.520268 226.477128 
L 76.763861 226.38598 
L 77.738234 215.877925 
L 77.981827 212.310135 
L 78.225421 212.375241 
L 78.712607 205.578209 
L 78.956201 205.122469 
L 79.930574 194.080548 
L 80.41776 193.390428 
L 80.661354 190.577863 
L 80.904947 189.549194 
L 81.14854 189.041369 
L 82.122914 176.697335 
L 82.366507 176.267637 
L 82.6101 172.777974 
L 82.853693 174.587911 
L 83.097287 174.041024 
L 83.828067 164.92623 
L 84.07166 163.702244 
L 84.558847 156.071859 
L 85.776813 142.946557 
L 86.020406 142.608007 
L 86.264 139.847527 
L 86.507593 139.600125 
L 87.238373 131.448896 
L 87.481966 128.961859 
L 87.72556 128.62331 
L 87.969153 127.842042 
L 88.212746 127.581619 
L 88.456339 124.899266 
L 88.699933 124.091955 
L 88.943526 123.961744 
L 89.187119 121.1622 
L 89.430713 116.852205 
L 89.674306 116.969395 
L 89.917899 114.326105 
L 90.161493 113.974535 
L 90.405086 113.870366 
L 90.892272 108.896293 
L 91.135866 108.492638 
L 91.379459 108.505659 
L 91.623052 108.323363 
L 91.866646 107.763454 
L 92.353832 102.307599 
L 92.597426 101.812796 
L 93.571799 91.317762 
L 93.815392 90.653685 
L 94.058985 87.658824 
L 94.302579 87.632782 
L 94.546172 89.859396 
L 94.789765 89.703142 
L 95.033359 87.151 
L 95.520545 86.968704 
L 95.764138 83.674357 
L 96.007732 83.335808 
L 96.738512 75.09343 
L 96.982105 74.780923 
L 97.225698 71.746999 
L 97.712885 70.861562 
L 97.956478 70.809477 
L 98.200071 70.549055 
L 98.443665 70.61416 
L 98.930851 70.470928 
L 99.418038 70.04123 
L 99.661631 69.989146 
L 99.905225 69.780808 
L 100.148818 67.384919 
L 100.392411 67.306792 
L 100.636004 66.981264 
L 100.879598 64.442143 
L 102.341158 62.91867 
L 102.584751 60.431634 
L 103.802717 60.093084 
L 104.046311 57.658132 
L 104.289904 59.819641 
L 104.533497 57.319583 
L 104.777091 57.449794 
L 105.020684 57.280519 
L 105.264277 57.254477 
L 105.751464 56.759674 
L 106.725837 56.043512 
L 106.96943 55.991427 
L 107.213024 53.439285 
L 107.456617 53.426264 
L 107.70021 53.256989 
L 108.187397 53.204905 
L 108.43099 50.561615 
L 108.674583 50.574636 
L 108.918177 49.975664 
L 110.62333 49.767325 
L 110.866923 49.624093 
L 111.110516 49.70222 
L 111.35411 49.038142 
L 111.841296 48.829804 
L 113.059263 48.803762 
L 113.302856 51.303819 
L 115.008009 50.704847 
L 115.251603 50.39234 
L 115.495196 50.379319 
L 115.738789 47.762071 
L 116.469569 47.853219 
L 118.661909 47.17612 
L 118.905502 44.663041 
L 120.123469 44.428661 
L 120.367062 46.798507 
L 121.097842 46.290683 
L 121.341435 46.342767 
L 121.585028 46.121408 
L 122.072215 46.043281 
L 122.802995 45.782859 
L 124.264555 45.79588 
L 126.944081 45.157844 
L 127.431268 45.092739 
L 127.918454 44.780231 
L 128.405641 44.65002 
L 128.649234 42.058814 
L 128.892827 41.954645 
L 129.136421 44.350534 
L 129.867201 44.41564 
L 130.354387 44.363555 
L 131.815947 44.103132 
L 132.303134 44.090111 
L 132.79032 44.011984 
L 133.033914 46.433915 
L 133.277507 46.499021 
L 133.764693 46.381831 
L 134.739067 46.108387 
L 134.98266 46.225577 
L 135.957033 46.095366 
L 136.200626 46.14745 
L 137.175 45.965154 
L 138.392966 45.834943 
L 138.880153 45.939112 
L 139.367339 45.939112 
L 141.072493 45.743795 
L 144.482799 45.860985 
L 144.726392 43.399991 
L 145.213579 43.426033 
L 145.457172 43.439055 
L 145.700765 43.334886 
L 145.944359 45.834943 
L 148.380292 45.522436 
L 148.867478 45.353161 
L 150.085445 45.327119 
L 150.572631 45.535457 
L 150.816225 45.366182 
L 151.547004 45.314098 
L 153.008564 45.34014 
L 153.252158 45.34014 
L 153.495751 42.774977 
L 155.444497 42.722892 
L 155.688091 42.801019 
L 157.14965 42.644765 
L 157.393244 40.144708 
L 157.88043 40.17075 
L 159.098397 40.105644 
L 159.34199 39.962412 
L 161.047143 39.897306 
L 161.53433 40.001475 
L 161.777923 39.988454 
L 162.021516 37.41027 
L 162.508703 37.397249 
L 162.752296 37.449333 
L 162.99589 37.319122 
L 164.213856 37.358185 
L 164.944636 37.280058 
L 165.431823 37.280058 
L 165.675416 37.240995 
L 165.919009 37.332143 
L 167.624162 37.123805 
L 168.111349 37.123805 
L 169.572909 37.058699 
L 170.060095 36.967551 
L 170.303689 34.454472 
L 174.444775 34.154986 
L 175.662741 33.998733 
L 177.124301 33.959669 
L 177.367894 36.394621 
L 178.098674 36.49879 
L 178.829454 36.407643 
L 179.073048 36.290452 
L 182.23976 36.368579 
L 182.483354 36.277431 
L 183.214134 36.290452 
L 183.944914 36.290452 
L 184.4321 36.355558 
L 185.16288 36.3816 
L 185.406473 36.394621 
L 185.89366 36.26441 
L 187.111626 36.121178 
L 187.35522 36.14722 
L 187.598813 36.056072 
L 187.842406 36.121178 
L 188.573186 35.990966 
L 188.81678 36.14722 
L 194.906612 35.912839 
L 196.611765 36.017008 
L 199.047698 35.847734 
L 199.778478 35.834713 
L 200.265665 35.834713 
L 201.483631 35.80867 
L 201.727225 33.308613 
L 202.214411 33.204444 
L 202.701598 33.28257 
L 203.919564 33.373718 
L 205.381124 33.425803 
L 208.79143 33.516951 
L 209.52221 33.516951 
L 210.009397 33.477887 
L 213.419703 33.556014 
L 214.394076 33.464866 
L 215.368449 33.516951 
L 217.317196 33.50393 
L 219.509536 33.582057 
L 219.996722 33.50393 
L 220.727502 33.647162 
L 223.650622 33.725289 
L 224.137808 33.751331 
L 225.599368 33.751331 
L 226.330148 33.777374 
L 227.548115 33.725289 
L 228.035301 33.881543 
L 229.253268 33.686226 
L 229.984048 33.699247 
L 231.689201 33.608099 
L 233.394354 33.686226 
L 235.099507 33.608099 
L 235.586693 33.608099 
L 237.53544 33.490909 
L 242.163713 33.673204 
L 242.650899 33.62112 
L 243.625272 33.516951 
L 244.112459 33.582057 
L 245.086832 33.451845 
L 246.304799 33.464866 
L 247.279172 33.477887 
L 248.497138 33.373718 
L 252.881818 33.074232 
L 253.369004 32.970063 
L 258.240871 32.878915 
L 259.946024 32.787767 
L 262.138363 32.800789 
L 263.112737 32.683598 
L 263.599923 32.553387 
L 266.279449 32.47526 
L 267.253823 32.397133 
L 268.715382 32.384112 
L 269.933349 32.384112 
L 270.664129 32.436197 
L 271.394909 32.384112 
L 275.292402 32.488281 
L 276.266775 32.47526 
L 278.459115 32.605472 
L 280.895048 32.631514 
L 283.087387 32.527345 
L 284.06176 32.553387 
L 285.279727 32.579429 
L 286.2541 32.553387 
L 288.690033 32.59245 
L 289.420813 32.59245 
L 290.63878 32.618493 
L 291.36956 32.631514 
L 292.100339 32.709641 
L 294.536272 32.735683 
L 295.267052 32.696619 
L 296.485019 32.683598 
L 298.190172 32.605472 
L 299.408138 32.696619 
L 300.382512 32.696619 
L 305.497971 32.488281 
L 306.715937 32.696619 
L 307.446717 32.735683 
L 307.933904 32.839852 
L 315.72889 32.761725 
L 316.45967 32.709641 
L 317.677636 32.670577 
L 318.895603 32.709641 
L 321.331536 32.865894 
L 322.549502 32.852873 
L 324.011062 32.787767 
L 326.446995 32.944021 
L 327.177775 32.878915 
L 327.664961 32.839852 
L 329.370115 32.904958 
L 329.857301 32.970063 
L 330.344488 32.957042 
L 333.024014 32.774746 
L 333.754794 32.761725 
L 339.844626 32.865894 
L 341.306186 32.904958 
L 341.793373 32.839852 
L 343.011339 32.878915 
L 343.742119 32.891936 
L 348.370392 32.787767 
L 349.588359 32.761725 
L 350.562732 32.81381 
L 351.293512 32.878915 
L 352.024292 32.970063 
L 352.755071 32.904958 
L 353.729445 32.891936 
L 354.947411 32.670577 
L 356.165378 32.696619 
L 359.575684 32.800789 
L 360.306464 32.800789 
L 361.037244 32.787767 
L 367.127076 32.553387 
L 368.832229 32.553387 
L 369.319416 32.449218 
L 370.537382 32.462239 
L 371.268162 32.501302 
L 372.486129 32.566408 
L 373.216909 32.670577 
L 373.704095 32.566408 
L 374.434875 32.501302 
L 378.819555 32.35807 
L 381.499081 32.436197 
L 381.986268 32.397133 
L 389.050473 32.47526 
L 389.53766 32.462239 
L 391.486406 32.47526 
L 393.435153 32.462239 
L 395.140306 32.566408 
L 396.358272 32.553387 
L 396.601866 32.618493 
L 397.332646 32.514324 
L 398.550612 32.618493 
L 401.230138 32.683598 
L 402.204512 32.826831 
L 403.666071 32.735683 
L 404.396851 32.683598 
L 404.640445 32.800789 
L 406.345598 32.787767 
L 406.832784 32.826831 
L 409.025124 32.852873 
L 410.486684 32.761725 
L 411.217464 32.748704 
L 412.191837 32.787767 
L 414.62777 32.944021 
L 415.602143 32.839852 
L 417.794483 32.852873 
L 419.012449 32.787767 
L 419.986823 32.839852 
L 420.717603 32.774746 
L 421.204789 32.748704 
L 421.935569 32.709641 
L 422.666349 32.683598 
L 424.127909 32.735683 
L 425.345875 32.709641 
L 427.294622 32.683598 
L 428.756182 32.800789 
L 428.999775 32.644535 
L 430.704928 32.81381 
L 431.679301 32.81381 
L 434.358827 32.865894 
L 438.012727 32.774746 
L 439.961473 32.774746 
L 444.589746 32.579429 
L 445.076933 32.657556 
L 446.538493 32.683598 
L 453.602698 32.631514 
L 454.333478 32.514324 
L 455.551445 32.47526 
L 457.256598 32.384112 
L 457.987378 32.384112 
L 459.205344 32.436197 
L 460.910497 32.449218 
L 461.641277 32.462239 
L 462.128464 32.423176 
L 464.80799 32.47526 
L 466.025957 32.449218 
L 467.243923 32.47526 
L 468.949076 32.488281 
L 469.923449 32.423176 
L 471.872196 32.436197 
L 472.359382 32.436197 
L 472.846569 32.423176 
L 474.064536 32.527345 
L 475.526095 32.514324 
L 476.500469 32.449218 
L 477.718435 32.501302 
L 479.423588 32.423176 
L 482.346708 32.47526 
L 503.295732 32.553387 
L 503.782918 32.579429 
L 505.244478 32.527345 
L 506.706038 32.579429 
L 507.680411 32.553387 
L 508.654784 32.553387 
L 510.603531 32.670577 
L 511.334311 32.657556 
L 511.821497 32.644535 
L 512.552277 32.735683 
L 513.52665 32.748704 
L 514.013837 32.787767 
L 514.744617 32.761725 
L 529.116622 32.696619 
L 529.603808 32.683598 
L 530.090995 32.722662 
L 531.796148 32.709641 
L 532.526928 32.735683 
L 533.501301 32.631514 
L 534.475674 32.631514 
L 538.129574 32.670577 
L 538.129574 32.670577 
" clip-path="url(#p76f3fd6f04)" style="fill: none; stroke: #1f77b4; stroke-opacity: 0.8; stroke-width: 1.5; stroke-linecap: square"/>
   </g>
   <g id="patch_3">
    <path d="M 52.160938 241.478125 
L 52.160938 22.318125 
" style="fill: none; stroke: #000000; stroke-width: 0.8; stroke-linejoin: miter; stroke-linecap: square"/>
   </g>
   <g id="patch_4">
    <path d="M 561.270937 241.478125 
L 561.270937 22.318125 
" style="fill: none; stroke: #000000; stroke-width: 0.8; stroke-linejoin: miter; stroke-linecap: square"/>
   </g>
   <g id="patch_5">
    <path d="M 52.160938 241.478125 
L 561.270937 241.478125 
" style="fill: none; stroke: #000000; stroke-width: 0.8; stroke-linejoin: miter; stroke-linecap: square"/>
   </g>
   <g id="patch_6">
    <path d="M 52.160938 22.318125 
L 561.270937 22.318125 
" style="fill: none; stroke: #000000; stroke-width: 0.8; stroke-linejoin: miter; stroke-linecap: square"/>
   </g>
   <g id="text_19">
    <!-- Tile-Coded Linear Q-Learning -->
    <g transform="translate(219.31375 16.318125) scale(0.12 -0.12)">
     <defs>
      <path id="DejaVuSans-54" d="M -19 4666 
L 3928 4666 
L 3928 4134 
L 2272 4134 
L 2272 0 
L 1638 0 
L 1638 4134 
L -19 4134 
L -19 4666 
z
" transform="scale(0.015625)"/>
      <path id="DejaVuSans-2d" d="M 313 2009 
L 1997 2009 
L 1997 1497 
L 313 1497 
L 313 2009 
z
" transform="scale(0.015625)"/>
      <path id="DejaVuSans-43" d="M 4122 4306 
L 4122 3641 
Q 3803 3938 3442 4084 
Q 3081 4231 2675 4231 
Q 1875 4231 1450 3742 
Q 1025 3253 1025 2328 
Q 1025 1406 1450 917 
Q 1875 428 2675 428 
Q 3081 428 3442 575 
Q 3803 722 4122 1019 
L 4122 359 
Q 3791 134 3420 21 
Q 3050 -91 2638 -91 
Q 1578 -91 968 557 
Q 359 1206 359 2328 
Q 359 3453 968 4101 
Q 1578 4750 2638 4750 
Q 3056 4750 3426 4639 
Q 3797 4528 4122 4306 
z
" transform="scale(0.015625)"/>
      <path id="DejaVuSans-4c" d="M 628 4666 
L 1259 4666 
L 1259 531 
L 3531 531 
L 3531 0 
L 628 0 
L 628 4666 
z
" transform="scale(0.015625)"/>
      <path id="DejaVuSans-51" d="M 2522 4238 
Q 1834 4238 1429 3725 
Q 1025 3213 1025 2328 
Q 1025 1447 1429 934 
Q 1834 422 2522 422 
Q 3209 422 3611 934 
Q 4013 1447 4013 2328 
Q 4013 3213 3611 3725 
Q 3209 4238 2522 4238 
z
M 3406 84 
L 4238 -825 
L 3475 -825 
L 2784 -78 
Q 2681 -84 2626 -87 
Q 2572 -91 2522 -91 
Q 1538 -91 948 567 
Q 359 1225 359 2328 
Q 359 3434 948 4092 
Q 1538 4750 2522 4750 
Q 3503 4750 4090 4092 
Q 4678 3434 4678 2328 
Q 4678 1516 4351 937 
Q 4025 359 3406 84 
z
" transform="scale(0.015625)"/>
     </defs>
     <use xlink:href="#DejaVuSans-54"/>
     <use xlink:href="#DejaVuSans-69" transform="translate(57.958984 0)"/>
     <use xlink:href="#DejaVuSans-6c" transform="translate(85.742188 0)"/>
     <use xlink:href="#DejaVuSans-65" transform="translate(113.525391 0)"/>
     <use xlink:href="#DejaVuSans-2d" transform="translate(175.048828 0)"/>
     <use xlink:href="#DejaVuSans-43" transform="translate(211.132812 0)"/>
     <use xlink:href="#DejaVuSans-6f" transform="translate(280.957031 0)"/>
     <use xlink:href="#DejaVuSans-64" transform="translate(342.138672 0)"/>
     <use xlink:href="#DejaVuSans-65" transform="translate(405.615234 0)"/>
     <use xlink:href="#DejaVuSans-64" transform="translate(467.138672 0)"/>
     <use xlink:href="#DejaVuSans-20" transform="translate(530.615234 0)"/>
     <use xlink:href="#DejaVuSans-4c" transform="translate(562.402344 0)"/>
     <use xlink:href="#DejaVuSans-69" transform="translate(618.115234 0)"/>
     <use xlink:href="#DejaVuSans-6e" transform="translate(645.898438 0)"/>
     <use xlink:href="#DejaVuSans-65" transform="translate(709.277344 0)"/>
     <use xlink:href="#DejaVuSans-61" transform="translate(770.800781 0)"/>
     <use xlink:href="#DejaVuSans-72" transform="translate(832.080078 0)"/>
     <use xlink:href="#DejaVuSans-20" transform="translate(873.193359 0)"/>
     <use xlink:href="#DejaVuSans-51" transform="translate(904.980469 0)"/>
     <use xlink:href="#DejaVuSans-2d" transform="translate(986.441406 0)"/>
     <use xlink:href="#DejaVuSans-4c" transform="translate(1022.525391 0)"/>
     <use xlink:href="#DejaVuSans-65" transform="translate(1076.488281 0)"/>
     <use xlink:href="#DejaVuSans-61" transform="translate(1138.011719 0)"/>
     <use xlink:href="#DejaVuSans-72" transform="translate(1199.291016 0)"/>
     <use xlink:href="#DejaVuSans-6e" transform="translate(1238.654297 0)"/>
     <use xlink:href="#DejaVuSans-69" transform="translate(1302.033203 0)"/>
     <use xlink:href="#DejaVuSans-6e" transform="translate(1329.816406 0)"/>
     <use xlink:href="#DejaVuSans-67" transform="translate(1393.195312 0)"/>
    </g>
   </g>
  </g>
 </g>
 <defs>
  <clipPath id="p76f3fd6f04">
   <rect x="52.160938" y="22.318125" width="509.11" height="219.16"/>
  </clipPath>
 </defs>
</svg>
